<svg xmlns="http://www.w3.org/2000/svg" version="1.1" xmlns:xlink="http://www.w3.org/1999/xlink" xmlns:svgjs="http://svgjs.dev/svgjs" width="1500" height="1500" viewBox="0 0 1500 1500"><rect width="1500" height="1500" fill="#ffffff"></rect><g transform="matrix(0.6666666666666666,0,0,0.6666666666666666,250,187.66666666666674)"><svg viewBox="0 0 320 360" data-background-color="#ffffff" preserveAspectRatio="xMidYMid meet" height="1687" width="1500" xmlns="http://www.w3.org/2000/svg" xmlns:xlink="http://www.w3.org/1999/xlink"><g id="tight-bounds" transform="matrix(1,0,0,1,0,0)"><svg viewBox="0 0 320 360" height="360" width="320"><g><svg></svg></g><g><svg viewBox="0 0 320 360" height="360" width="320"><g><path d="M160 42.18c72.417 0 131.943 56.114 137.63 127.014h22.37c-1.137-17.82-5.308-34.882-12.133-51.185-7.962-18.957-19.716-36.398-34.502-50.805-14.787-14.787-31.848-26.161-50.806-34.503-20.095-8.341-40.948-12.891-62.559-12.891-21.611 0-42.464 4.171-62.559 12.512-18.957 7.962-36.398 19.716-50.806 34.503-14.787 14.787-26.161 31.848-34.502 50.805-6.825 16.303-10.995 33.744-12.133 51.185h22.37c5.687-70.521 65.213-126.635 137.63-126.635zM160 318.199c-72.417 0-131.943-56.114-137.63-127.014h-22.37c1.137 17.82 5.308 34.882 12.133 51.185 7.962 18.957 19.716 36.398 34.502 50.805 14.787 14.787 31.848 26.161 50.806 34.503 19.716 8.341 40.569 12.512 62.559 12.512 21.991 0 42.464-4.171 62.559-12.512 18.957-7.962 36.398-19.716 50.806-34.503 14.787-14.787 26.161-31.848 34.502-50.805 6.825-16.303 10.995-33.744 12.133-51.185h-22.37c-5.687 70.9-65.213 127.014-137.63 127.014z" fill="#000000" fill-rule="nonzero" stroke="none" stroke-width="1" stroke-linecap="butt" stroke-linejoin="miter" stroke-miterlimit="10" stroke-dasharray="" stroke-dashoffset="0" font-family="none" font-weight="none" font-size="none" text-anchor="none" style="mix-blend-mode: normal" data-fill-palette-color="tertiary"></path></g><g transform="matrix(1,0,0,1,56,146.7584048023495)"><svg viewBox="0 0 208 66.48319039530102" height="66.48319039530102" width="208"><g><svg viewBox="0 0 208 66.48319039530102" height="66.48319039530102" width="208"><g><svg viewBox="0 0 208 66.48319039530102" height="66.48319039530102" width="208"><g><svg viewBox="0 0 208 66.48319039530102" height="66.48319039530102" width="208"><g id="textblocktransform"><svg viewBox="0 0 208 66.48319039530102" height="66.48319039530102" width="208" id="textblock"><g><svg viewBox="0 0 208 35.85785609397944" height="35.85785609397944" width="208"><g transform="matrix(1,0,0,1,0,0)"><svg width="208" viewBox="2.25 -34.86 249.35 42.99" height="35.85785609397944" data-palette-color="#556970"><path d="M5.64-13.21L5.64 0 2.25 0 2.25-34.86 10.47-34.86Q14.89-34.86 16.92-33.45 18.95-32.03 19.17-28.76L19.17-28.76Q19.41-26.03 19.41-23.83 19.41-21.63 19.17-19.31L19.17-19.31Q18.95-16.06 16.91-14.64 14.87-13.21 10.38-13.21L10.38-13.21 5.64-13.21ZM10.47-31.74L5.64-31.74 5.64-16.33 10.38-16.33Q13.21-16.33 14.44-17.03 15.67-17.72 15.8-19.17L15.8-19.17Q16.16-24.02 15.8-28.93L15.8-28.93Q15.67-30.37 14.45-31.05 13.23-31.74 10.47-31.74L10.47-31.74ZM25.95-19.19L25.95 0 22.8 0 22.8-31.69 25.95-31.69 25.95-21.53 26.71-21.53Q27.56-22.83 28.7-23.45 29.83-24.07 31.81-24.07L31.81-24.07Q34.57-24.07 35.91-22.86 37.25-21.66 37.25-18.82L37.25-18.82 37.25 0 34.13 0 34.13-19.09Q34.13-20.31 33.36-20.86 32.59-21.41 30.88-21.41L30.88-21.41Q27.22-21.41 25.95-19.19L25.95-19.19ZM43.89 8.13L43.89 8.13Q43.11 8.13 42.02 8.06 40.94 7.98 40.23 7.91L40.23 7.91 40.23 5.2Q41.74 5.32 43.79 5.32L43.79 5.32Q45.97 5.32 46.74 4.8 47.5 4.27 47.77 2.95L47.77 2.95 48.48 0 45.19 0 40.79-23.75 44.01-23.75 45.65-12.43 47.53-2.71 49.02-2.71 51.02-12.43 52.75-23.75 56-23.75 50.87 2.71Q50.41 5.59 48.92 6.86 47.43 8.13 43.89 8.13ZM65.59 0.29L65.59 0.29Q61.66 0.29 60.14-0.98 58.61-2.25 58.49-5.13L58.49-5.13Q58.44-5.88 58.43-6.82 58.42-7.76 58.51-8.47L58.51-8.47 61.37-8.47Q61.32-7.35 61.33-6.41 61.35-5.47 61.37-4.81L61.37-4.81Q61.39-3.47 62.31-2.95 63.22-2.44 65.59-2.44L65.59-2.44Q68.01-2.44 69-2.95 69.99-3.47 70.06-4.81L70.06-4.81Q70.13-5.64 70.16-6.04 70.18-6.45 70.16-7.2L70.16-7.2Q70.09-8.45 69.5-9.13 68.91-9.81 66.96-10.11L66.96-10.11 64.1-10.77Q61.91-11.23 60.71-11.94 59.51-12.65 59.03-13.78 58.54-14.92 58.44-16.65L58.44-16.65Q58.37-17.53 58.56-18.58L58.56-18.58Q58.61-21.53 60.16-22.8 61.71-24.07 65.81-24.07L65.81-24.07Q69.74-24.07 71.27-22.83 72.8-21.58 72.94-18.73L72.94-18.73Q72.94-17.99 72.93-17.05 72.92-16.11 72.84-15.41L72.84-15.41 69.89-15.41Q70.01-16.26 70-17.36 69.99-18.46 69.94-19.07L69.94-19.07Q69.91-20.36 69.05-20.85 68.18-21.34 65.81-21.34L65.81-21.34Q63.42-21.34 62.55-20.85 61.69-20.36 61.59-19.07L61.59-19.07Q61.56-18.46 61.52-18.05 61.47-17.65 61.49-16.94L61.49-16.94Q61.56-16.09 61.75-15.43 61.93-14.77 62.58-14.34 63.22-13.92 64.69-13.7L64.69-13.7 67.42-13.13Q70.4-12.52 71.77-11.24 73.14-9.96 73.14-7.37L73.14-7.37Q73.14-6.84 73.12-6.23 73.11-5.62 73.06-5.05L73.06-5.05Q72.89-2.2 71.27-0.95 69.65 0.29 65.59 0.29ZM80.75-31.69L80.75-28.17 77.6-28.17 77.6-31.69 80.75-31.69ZM80.75-23.75L80.75 0 77.58 0 77.58-23.75 80.75-23.75ZM93.1 0.29L93.1 0.29Q89.12 0.29 87.49-1.07 85.85-2.44 85.73-5.62L85.73-5.62Q85.58-7.42 85.53-9.63 85.49-11.84 85.53-14.09 85.58-16.33 85.73-18.16L85.73-18.16Q85.85-21.34 87.5-22.71 89.15-24.07 93.1-24.07L93.1-24.07Q97.11-24.07 98.71-22.71 100.3-21.34 100.43-18.16L100.43-18.16Q100.57-16.36 100.62-14.15 100.67-11.94 100.62-9.7 100.57-7.47 100.43-5.62L100.43-5.62Q100.3-2.47 98.71-1.09 97.11 0.29 93.1 0.29ZM93.1-2.44L93.1-2.44Q95.35-2.44 96.3-2.99 97.25-3.54 97.33-4.81L97.33-4.81Q97.57-8.62 97.57-11.89 97.57-15.16 97.33-18.97L97.33-18.97Q97.25-20.26 96.33-20.8 95.4-21.34 93.1-21.34L93.1-21.34Q90.81-21.34 89.87-20.8 88.93-20.26 88.85-18.97L88.85-18.97Q88.63-15.16 88.62-11.88 88.61-8.59 88.85-4.81L88.85-4.81Q88.9-3.54 89.89-2.99 90.88-2.44 93.1-2.44ZM112.34 0.29L112.34 0.29Q108.53 0.29 107.2-0.98 105.87-2.25 105.87-5.13L105.87-5.13 105.87-21.02 103.53-21.02 103.53-23.75 105.94-23.75 105.94-30.49 109.04-30.49 109.04-23.75 114.41-23.75 114.41-21.02 109.02-21.02 109.02-4.79Q109.02-3.44 109.58-2.93 110.14-2.42 112.41-2.42L112.41-2.42Q113.34-2.42 113.84-2.45 114.34-2.49 115-2.51L115-2.51 115 0.1Q114.41 0.2 113.73 0.24 113.05 0.29 112.34 0.29ZM124.88 0.29L124.88 0.29Q120.86 0.29 119.14-0.98 117.41-2.25 117.29-5.13L117.29-5.13Q117.19-6.93 117.16-9.38 117.12-11.82 117.16-14.28 117.19-16.75 117.29-18.58L117.29-18.58Q117.41-21.53 119.18-22.8 120.95-24.07 124.88-24.07L124.88-24.07Q128.6-24.07 130.26-22.83 131.92-21.58 132.09-18.73L132.09-18.73Q132.14-17.87 132.18-15.75 132.23-13.62 132.04-11.23L132.04-11.23 120.34-11.23Q120.34-9.69 120.37-8.11 120.39-6.52 120.47-4.81L120.47-4.81Q120.49-3.47 121.49-2.95 122.49-2.44 124.79-2.44L124.79-2.44Q127.06-2.44 127.99-2.95 128.91-3.47 129.01-4.81L129.01-4.81Q129.08-6.15 129.01-8.47L129.01-8.47 132.04-8.47Q132.16-7.76 132.15-6.82 132.14-5.88 132.09-5.13L132.09-5.13Q131.92-2.25 130.34-0.98 128.77 0.29 124.88 0.29ZM120.34-13.82L120.34-13.82 129.06-13.82Q129.11-15.48 129.11-16.99 129.11-18.51 129.01-19.07L129.01-19.07Q128.91-20.29 127.96-20.81 127.01-21.34 124.88-21.34L124.88-21.34Q122.52-21.34 121.5-20.81 120.49-20.29 120.47-19.07L120.47-19.07Q120.39-17.65 120.36-16.36 120.32-15.06 120.34-13.82ZM139.41-19.19L139.41 0 136.26 0 136.26-23.75 139.41-23.75 139.41-21.53 140.09-21.53Q140.73-22.75 141.78-23.41 142.83-24.07 144.39-24.07L144.39-24.07Q146.73-24.07 147.87-22.84 149-21.61 149-18.58L149-18.58Q149-17.92 148.95-17.02 148.91-16.11 148.81-15.41L148.81-15.41 145.78-15.41Q145.83-15.65 145.84-16.26 145.85-16.87 145.87-17.48 145.88-18.09 145.88-18.31L145.88-18.31Q145.88-20.12 145.27-20.76 144.66-21.41 143.31-21.41L143.31-21.41Q140.46-21.41 139.41-19.19L139.41-19.19ZM158.25 0.27L158.25 0.27Q155.28 0.27 153.85-0.9 152.42-2.08 152.17-4.57L152.17-4.57Q152.15-5.05 152.11-5.54 152.08-6.03 152.13-6.49L152.13-6.49Q152.3-8.67 153.49-10.14 154.69-11.62 158.03-12.84L158.03-12.84Q159.4-13.33 160.92-13.72 162.43-14.11 163.92-14.48L163.92-14.48 163.92-18.99Q163.92-20.19 163.01-20.76 162.11-21.34 159.87-21.34L159.87-21.34Q157.91-21.34 156.9-20.85 155.89-20.36 155.79-19.07L155.79-19.07Q155.74-18.46 155.74-17.32 155.74-16.19 155.79-15.41L155.79-15.41 152.74-15.41Q152.69-16.02 152.64-16.99 152.59-17.97 152.66-18.73L152.66-18.73Q152.79-21.56 154.51-22.81 156.23-24.07 159.99-24.07L159.99-24.07Q163.92-24.07 165.44-22.71 166.97-21.34 166.99-18.21L166.99-18.21 166.99 0 163.92 0 163.92-2.25 163.23-2.25Q162.62-1.03 161.49-0.38 160.35 0.27 158.25 0.27ZM159.04-2.37L159.04-2.37Q162.55-2.37 163.89-4.47L163.89-4.47 163.89-11.87Q162.72-11.62 161.49-11.29 160.26-10.96 158.6-10.4L158.6-10.4Q156.62-9.67 155.96-8.72 155.3-7.76 155.2-6.49L155.2-6.49Q155.23-6.13 155.24-5.7 155.25-5.27 155.3-4.81L155.3-4.81Q155.47-3.64 156.47-3 157.47-2.37 159.04-2.37ZM174.63-2.25L174.63 7.91 171.48 7.91 171.48-23.75 174.63-23.75 174.63-21.53 175.32-21.53Q176.15-22.83 177.31-23.45 178.47-24.07 180.49-24.07L180.49-24.07Q183.28-24.07 184.61-22.86 185.94-21.66 186.01-18.82L186.01-18.82Q186.08-17.58 186.11-15.81 186.13-14.04 186.13-12.07 186.13-10.11 186.11-8.25 186.08-6.4 186.01-4.96L186.01-4.96Q185.94-2.15 184.55-0.93 183.15 0.29 180.37 0.29L180.37 0.29Q178.54 0.29 177.37-0.31 176.2-0.9 175.32-2.25L175.32-2.25 174.63-2.25ZM179.49-2.37L179.49-2.37Q182.79-2.37 182.89-4.69L182.89-4.69Q183.08-8.47 183.04-12.16 183.01-15.84 182.89-19.09L182.89-19.09Q182.84-20.31 182.1-20.86 181.37-21.41 179.64-21.41L179.64-21.41Q175.9-21.41 174.63-19.19L174.63-19.19 174.63-4.59Q175.29-3.39 176.43-2.88 177.56-2.37 179.49-2.37ZM192.53 8.13L192.53 8.13Q191.74 8.13 190.66 8.06 189.57 7.98 188.86 7.91L188.86 7.91 188.86 5.2Q190.38 5.32 192.43 5.32L192.43 5.32Q194.6 5.32 195.37 4.8 196.14 4.27 196.41 2.95L196.41 2.95 197.12 0 193.82 0 189.43-23.75 192.65-23.75 194.28-12.43 196.16-2.71 197.65-2.71 199.66-12.43 201.39-23.75 204.64-23.75 199.51 2.71Q199.04 5.59 197.56 6.86 196.07 8.13 192.53 8.13ZM216.18 0L216.18 0 207.64 0 207.64-34.86 216.3-34.86Q220.84-34.86 222.88-33.4 224.92-31.93 224.99-28.54L224.99-28.54Q225.12-24.58 225.15-21.02 225.19-17.46 225.15-13.89 225.12-10.33 224.99-6.35L224.99-6.35Q224.92-2.95 222.87-1.48 220.82 0 216.18 0ZM216.3-31.74L211.03-31.74 211.03-3.13 216.18-3.13Q219.04-3.13 220.31-3.83 221.58-4.54 221.6-5.98L221.6-5.98Q221.97-17.43 221.6-28.93L221.6-28.93Q221.58-30.37 220.32-31.05 219.06-31.74 216.3-31.74L216.3-31.74ZM244.01-3.13L244.01 0 229.34 0 229.34-34.86 244.01-34.86 244.01-31.74 232.73-31.74 232.73-19.14 243.25-19.14 243.25-16.02 232.73-16.02 232.73-3.13 244.01-3.13ZM251.6-34.86L251.6 0 248.21 0 248.21-34.86 251.6-34.86Z" opacity="1" transform="matrix(1,0,0,1,0,0)" fill="#000000" class="wordmark-text-0" data-fill-palette-color="primary" id="text-0"></path></svg></g></svg></g><g transform="matrix(1,0,0,1,0,44.32303532922173)"><svg viewBox="0 0 208 22.160155066079295" height="22.160155066079295" width="208"><g transform="matrix(1,0,0,1,0,0)"><svg width="208" viewBox="0.98 -34.86 329.97999999999996 35.15" height="22.160155066079295" data-palette-color="#556970"><path d="M9.79 0.29L9.79 0.29Q5.98 0.29 4.65-0.98 3.32-2.25 3.32-5.13L3.32-5.13 3.32-21.02 0.98-21.02 0.98-23.75 3.39-23.75 3.39-30.49 6.49-30.49 6.49-23.75 11.87-23.75 11.87-21.02 6.47-21.02 6.47-4.79Q6.47-3.44 7.03-2.93 7.59-2.42 9.86-2.42L9.86-2.42Q10.79-2.42 11.29-2.45 11.79-2.49 12.45-2.51L12.45-2.51 12.45 0.1Q11.87 0.2 11.18 0.24 10.5 0.29 9.79 0.29ZM22.63-19.19L22.63 0 19.48 0 19.48-31.69 22.63-31.69 22.63-21.53 23.39-21.53Q24.24-22.83 25.38-23.45 26.51-24.07 28.49-24.07L28.49-24.07Q31.25-24.07 32.59-22.86 33.93-21.66 33.93-18.82L33.93-18.82 33.93 0 30.81 0 30.81-19.09Q30.81-20.31 30.04-20.86 29.27-21.41 27.56-21.41L27.56-21.41Q23.9-21.41 22.63-19.19L22.63-19.19ZM46.63-31.69L46.63-28.17 43.48-28.17 43.48-31.69 46.63-31.69ZM46.63-23.75L46.63 0 43.45 0 43.45-23.75 46.63-23.75ZM62.81 0.29L62.81 0.29Q58.88 0.29 57.36-0.98 55.83-2.25 55.71-5.13L55.71-5.13Q55.66-5.88 55.65-6.82 55.64-7.76 55.73-8.47L55.73-8.47 58.59-8.47Q58.54-7.35 58.55-6.41 58.57-5.47 58.59-4.81L58.59-4.81Q58.61-3.47 59.53-2.95 60.45-2.44 62.81-2.44L62.81-2.44Q65.23-2.44 66.22-2.95 67.21-3.47 67.28-4.81L67.28-4.81Q67.35-5.64 67.38-6.04 67.4-6.45 67.38-7.2L67.38-7.2Q67.31-8.45 66.72-9.13 66.13-9.81 64.18-10.11L64.18-10.11 61.32-10.77Q59.13-11.23 57.93-11.94 56.73-12.65 56.25-13.78 55.76-14.92 55.66-16.65L55.66-16.65Q55.59-17.53 55.78-18.58L55.78-18.58Q55.83-21.53 57.38-22.8 58.93-24.07 63.03-24.07L63.03-24.07Q66.96-24.07 68.49-22.83 70.02-21.58 70.16-18.73L70.16-18.73Q70.16-17.99 70.15-17.05 70.14-16.11 70.06-15.41L70.06-15.41 67.11-15.41Q67.23-16.26 67.22-17.36 67.21-18.46 67.16-19.07L67.16-19.07Q67.13-20.36 66.27-20.85 65.4-21.34 63.03-21.34L63.03-21.34Q60.64-21.34 59.77-20.85 58.91-20.36 58.81-19.07L58.81-19.07Q58.79-18.46 58.74-18.05 58.69-17.65 58.71-16.94L58.71-16.94Q58.79-16.09 58.97-15.43 59.15-14.77 59.8-14.34 60.45-13.92 61.91-13.7L61.91-13.7 64.64-13.13Q67.62-12.52 68.99-11.24 70.36-9.96 70.36-7.37L70.36-7.37Q70.36-6.84 70.35-6.23 70.33-5.62 70.28-5.05L70.28-5.05Q70.11-2.2 68.49-0.95 66.87 0.29 62.81 0.29ZM98.24 0.29L98.24 0.29Q95.48 0.29 94.13-0.93 92.79-2.15 92.72-4.96L92.72-4.96Q92.62-6.96 92.58-9.35 92.55-11.74 92.58-14.21 92.62-16.67 92.72-18.82L92.72-18.82Q92.79-21.66 94.17-22.86 95.55-24.07 98.28-24.07L98.28-24.07Q100.31-24.07 101.47-23.45 102.63-22.83 103.48-21.53L103.48-21.53 104.12-21.53 104.12-31.69 107.24-31.69 107.24 0 104.12 0 104.12-2.25 103.41-2.25Q102.58-1.03 101.42-0.37 100.26 0.29 98.24 0.29ZM99.14-2.37L99.14-2.37Q102.83-2.37 104.12-4.59L104.12-4.59 104.12-19.19Q102.85-21.41 99.16-21.41L99.16-21.41Q97.45-21.41 96.69-20.86 95.92-20.31 95.89-19.09L95.89-19.09Q95.75-15.43 95.77-11.66 95.79-7.89 95.89-4.69L95.89-4.69Q95.94-3.49 96.69-2.93 97.43-2.37 99.14-2.37ZM123.53 0.29L123.53 0.29Q119.55 0.29 117.91-1.07 116.28-2.44 116.15-5.62L116.15-5.62Q116.01-7.42 115.96-9.63 115.91-11.84 115.96-14.09 116.01-16.33 116.15-18.16L116.15-18.16Q116.28-21.34 117.92-22.71 119.57-24.07 123.53-24.07L123.53-24.07Q127.53-24.07 129.13-22.71 130.73-21.34 130.85-18.16L130.85-18.16Q131-16.36 131.05-14.15 131.1-11.94 131.05-9.7 131-7.47 130.85-5.62L130.85-5.62Q130.73-2.47 129.13-1.09 127.53 0.29 123.53 0.29ZM123.53-2.44L123.53-2.44Q125.77-2.44 126.73-2.99 127.68-3.54 127.75-4.81L127.75-4.81Q128-8.62 128-11.89 128-15.16 127.75-18.97L127.75-18.97Q127.68-20.26 126.75-20.8 125.82-21.34 123.53-21.34L123.53-21.34Q121.23-21.34 120.29-20.8 119.35-20.26 119.28-18.97L119.28-18.97Q119.06-15.16 119.05-11.88 119.04-8.59 119.28-4.81L119.28-4.81Q119.33-3.54 120.32-2.99 121.31-2.44 123.53-2.44ZM147.11 0.29L147.11 0.29Q143.08 0.29 141.36-0.98 139.64-2.25 139.52-5.13L139.52-5.13Q139.42-6.93 139.38-9.38 139.35-11.82 139.38-14.28 139.42-16.75 139.52-18.58L139.52-18.58Q139.64-21.53 141.41-22.8 143.18-24.07 147.11-24.07L147.11-24.07Q150.82-24.07 152.48-22.83 154.14-21.58 154.31-18.73L154.31-18.73Q154.36-17.87 154.41-15.75 154.46-13.62 154.26-11.23L154.26-11.23 142.57-11.23Q142.57-9.69 142.59-8.11 142.62-6.52 142.69-4.81L142.69-4.81Q142.72-3.47 143.72-2.95 144.72-2.44 147.01-2.44L147.01-2.44Q149.28-2.44 150.21-2.95 151.14-3.47 151.24-4.81L151.24-4.81Q151.31-6.15 151.24-8.47L151.24-8.47 154.26-8.47Q154.39-7.76 154.37-6.82 154.36-5.88 154.31-5.13L154.31-5.13Q154.14-2.25 152.57-0.98 150.99 0.29 147.11 0.29ZM142.57-13.82L142.57-13.82 151.28-13.82Q151.33-15.48 151.33-16.99 151.33-18.51 151.24-19.07L151.24-19.07Q151.14-20.29 150.19-20.81 149.23-21.34 147.11-21.34L147.11-21.34Q144.74-21.34 143.73-20.81 142.72-20.29 142.69-19.07L142.69-19.07Q142.62-17.65 142.58-16.36 142.54-15.06 142.57-13.82ZM169.45 0.29L169.45 0.29Q165.52 0.29 163.99-0.98 162.47-2.25 162.34-5.13L162.34-5.13Q162.29-5.88 162.28-6.82 162.27-7.76 162.37-8.47L162.37-8.47 165.22-8.47Q165.18-7.35 165.19-6.41 165.2-5.47 165.22-4.81L165.22-4.81Q165.25-3.47 166.16-2.95 167.08-2.44 169.45-2.44L169.45-2.44Q171.86-2.44 172.85-2.95 173.84-3.47 173.92-4.81L173.92-4.81Q173.99-5.64 174.01-6.04 174.04-6.45 174.01-7.2L174.01-7.2Q173.94-8.45 173.35-9.13 172.77-9.81 170.81-10.11L170.81-10.11 167.96-10.77Q165.76-11.23 164.56-11.94 163.37-12.65 162.88-13.78 162.39-14.92 162.29-16.65L162.29-16.65Q162.22-17.53 162.42-18.58L162.42-18.58Q162.47-21.53 164.02-22.8 165.57-24.07 169.67-24.07L169.67-24.07Q173.6-24.07 175.12-22.83 176.65-21.58 176.8-18.73L176.8-18.73Q176.8-17.99 176.78-17.05 176.77-16.11 176.7-15.41L176.7-15.41 173.74-15.41Q173.87-16.26 173.85-17.36 173.84-18.46 173.79-19.07L173.79-19.07Q173.77-20.36 172.9-20.85 172.04-21.34 169.67-21.34L169.67-21.34Q167.27-21.34 166.41-20.85 165.54-20.36 165.44-19.07L165.44-19.07Q165.42-18.46 165.37-18.05 165.32-17.65 165.35-16.94L165.35-16.94Q165.42-16.09 165.6-15.43 165.79-14.77 166.43-14.34 167.08-13.92 168.54-13.7L168.54-13.7 171.28-13.13Q174.26-12.52 175.62-11.24 176.99-9.96 176.99-7.37L176.99-7.37Q176.99-6.84 176.98-6.23 176.97-5.62 176.92-5.05L176.92-5.05Q176.75-2.2 175.12-0.95 173.5 0.29 169.45 0.29ZM188.49-19.19L188.49 0 185.34 0 185.34-23.75 188.49-23.75 188.49-21.53 189.25-21.53Q190-22.75 191.24-23.41 192.47-24.07 194.35-24.07L194.35-24.07Q197.11-24.07 198.45-22.86 199.79-21.66 199.79-18.82L199.79-18.82 199.79 0 196.67 0 196.67-19.09Q196.67-20.31 195.9-20.86 195.13-21.41 193.42-21.41L193.42-21.41Q191.71-21.41 190.42-20.83 189.12-20.24 188.49-19.19L188.49-19.19ZM212.66-30.2L211.63-25.17 209.53-25.17 208.53-30.2 208.53-34.86 212.66-34.86 212.66-30.2ZM229.01 0.29L229.01 0.29Q225.21 0.29 223.87-0.98 222.54-2.25 222.54-5.13L222.54-5.13 222.54-21.02 220.2-21.02 220.2-23.75 222.62-23.75 222.62-30.49 225.72-30.49 225.72-23.75 231.09-23.75 231.09-21.02 225.69-21.02 225.69-4.79Q225.69-3.44 226.26-2.93 226.82-2.42 229.09-2.42L229.09-2.42Q230.02-2.42 230.52-2.45 231.02-2.49 231.68-2.51L231.68-2.51 231.68 0.1Q231.09 0.2 230.41 0.24 229.72 0.29 229.01 0.29ZM256.14-19.19L256.14 0 252.99 0 252.99-31.69 256.14-31.69 256.14-21.53 256.89-21.53Q257.75-22.83 258.88-23.45 260.02-24.07 261.99-24.07L261.99-24.07Q264.75-24.07 266.1-22.86 267.44-21.66 267.44-18.82L267.44-18.82 267.44 0 264.31 0 264.31-19.09Q264.31-20.31 263.55-20.86 262.78-21.41 261.07-21.41L261.07-21.41Q257.41-21.41 256.14-19.19L256.14-19.19ZM281.72 0.29L281.72 0.29Q278.99 0.29 277.61-0.93 276.23-2.15 276.23-4.96L276.23-4.96 276.23-23.75 279.35-23.75 279.35-4.69Q279.35-3.49 280.11-2.93 280.87-2.37 282.57-2.37L282.57-2.37Q284.31-2.37 285.61-2.95 286.92-3.54 287.53-4.59L287.53-4.59 287.53-23.75 290.7-23.75 290.7 0 287.53 0 287.53-2.25 286.87-2.25Q285.26 0.29 281.72 0.29ZM302.98-19.19L302.98 0 299.83 0 299.83-23.75 302.98-23.75 302.98-21.53 303.67-21.53Q304.3-22.75 305.35-23.41 306.4-24.07 307.96-24.07L307.96-24.07Q310.31-24.07 311.44-22.84 312.58-21.61 312.58-18.58L312.58-18.58Q312.58-17.92 312.53-17.02 312.48-16.11 312.38-15.41L312.38-15.41 309.36-15.41Q309.4-15.65 309.42-16.26 309.43-16.87 309.44-17.48 309.45-18.09 309.45-18.31L309.45-18.31Q309.45-20.12 308.84-20.76 308.23-21.41 306.89-21.41L306.89-21.41Q304.03-21.41 302.98-19.19L302.98-19.19ZM328.3 0.29L328.3 0.29Q324.49 0.29 323.16-0.98 321.83-2.25 321.83-5.13L321.83-5.13 321.83-21.02 319.49-21.02 319.49-23.75 321.9-23.75 321.9-30.49 325-30.49 325-23.75 330.37-23.75 330.37-21.02 324.98-21.02 324.98-4.79Q324.98-3.44 325.54-2.93 326.1-2.42 328.37-2.42L328.37-2.42Q329.3-2.42 329.8-2.45 330.3-2.49 330.96-2.51L330.96-2.51 330.96 0.1Q330.37 0.2 329.69 0.24 329.01 0.29 328.3 0.29Z" opacity="1" transform="matrix(1,0,0,1,0,0)" fill="#000000" class="slogan-text-1" data-fill-palette-color="secondary" id="text-1"></path></svg></g></svg></g></svg></g></svg></g></svg></g></svg></g></svg></g></svg></g><defs></defs></svg><rect width="320" height="360" fill="none" stroke="none" visibility="hidden"></rect></g></svg></g></svg>